<?xml version="1.0" encoding="UTF-8"?><svg id="a" xmlns="http://www.w3.org/2000/svg" viewBox="0 0 681.65 538.67"><defs><style>.b{letter-spacing:0em;}.c{letter-spacing:0em;}.d{fill:none;}.d,.e,.f{stroke-miterlimit:10;}.d,.f{stroke:#fff;}.g{letter-spacing:-.04em;}.h{letter-spacing:0em;}.e{stroke:#231f20;}.e,.i,.j{fill:#231f20;}.k{letter-spacing:-.01em;}.i{font-size:236.65px;}.i,.j{font-family:MyriadPro-Regular, 'Myriad Pro';}.l{letter-spacing:0em;}.f{fill:#fff;}.j{font-size:71.46px;}.m{letter-spacing:0em;}.n{letter-spacing:0em;}</style></defs><text/><text/><text class="i" transform="translate(319.84 423.4) scale(.86 1)"><tspan class="g" x="0" y="0">T</tspan><tspan class="n" x="106.96" y="0">r</tspan><tspan class="b" x="181.98" y="0">ee</tspan></text><text class="j" transform="translate(356.04 479.61) scale(.84 1)"><tspan class="c" x="0" y="0">P</tspan><tspan class="l" x="37.66" y="0">ho</tspan><tspan class="m" x="116.56" y="0">t</tspan><tspan x="139.78" y="0">o</tspan><tspan class="m" x="179.02" y="0">g</tspan><tspan class="h" x="218.54" y="0">r</tspan><tspan x="241.55" y="0">ap</tspan><tspan class="k" x="316.66" y="0">h</tspan><tspan x="355.39" y="0">y</tspan></text><polygon class="e" points="170.9 389.48 179.77 407.74 190.21 417.13 201.68 422.87 218.38 422.87 242.38 450.52 242.38 488.49 246.03 493.91 254.9 493.91 258.55 491.22 258.55 428.09 264.81 417.13 270.92 417.65 272.79 420.26 277.86 422.35 285.16 425.3 290.9 425.3 301.34 425.3 306.03 420.78 313.34 416.61 318.55 409.93 324.81 402.52 327.94 389.48 327.94 380.61 327.94 367.04 325.34 355.57 321.16 350.35 314.38 342.52 307.08 337.3 302.38 337.3 304.47 325.3 304.99 316.43 304.99 301.3 301.86 291.39 295.6 279.91 285.16 268.43 277.34 261.13 268.07 254.91 260.64 254.91 237.02 254.91 226.21 258.52 217.34 265.83 207.94 276.26 197.51 287.22 195.42 301.3 193.86 328.43 196.99 335.22 192.81 339.91 183.42 343.57 177.68 352.96 170.9 367.57 170.9 389.48"/><polygon class="f" points="243.94 398.35 243.94 337.83 246.55 331.04 251.18 331.04 254.9 333.13 254.9 398.35 249.42 379.04 243.94 398.35"/><line class="d" x1="194.38" y1="538.17" x2="194.9" y2="538.17"/><polygon class="f" points="225.68 419.74 243.94 442.17 243.94 405.13 225.68 419.74"/><polygon class="f" points="254.9 405.13 254.9 418.17 259.08 411.65 259.08 407.74 254.9 405.13"/><polygon class="f" points="297.16 370.86 264.81 407.74 264.81 411.65 270.92 411.65 301.86 374.41 301.86 370.86 297.16 370.86"/><polygon class="f" points="194.9 394.7 194.9 398.35 216.29 418.17 222.03 420.78 222.03 415.57 201.68 394.7 194.9 394.7"/></svg>