<?xml version="1.0" encoding="UTF-8"?>
<svg id="a" xmlns="http://www.w3.org/2000/svg" viewBox="0 0 532.32 318.35">
  <defs>
    <style>
      .cls-1 {
        letter-spacing: -.02em;
      }

      .cls-1, .cls-2, .cls-3, .cls-4, .cls-5, .cls-6 {
        fill: #231f20;
      }

      .cls-1, .cls-2, .cls-4, .cls-5, .cls-6 {
        font-family: ArialMT, Arial;
      }

      .cls-1, .cls-2, .cls-4, .cls-5, .cls-6, .cls-7 {
        isolation: isolate;
      }

      .cls-1, .cls-5, .cls-6 {
        font-size: 71.46px;
      }

      .cls-2, .cls-4 {
        font-size: 236.65px;
      }

      .cls-8 {
        fill: #fff;
      }

      .cls-8, .cls-3, .cls-9 {
        stroke-miterlimit: 10;
      }

      .cls-8, .cls-9 {
        stroke: #fff;
      }

      .cls-3 {
        stroke: #231f20;
      }

      .cls-4 {
        letter-spacing: -.06em;
      }

      .cls-9 {
        fill: none;
      }

      .cls-6 {
        letter-spacing: 0em;
      }
    </style>
  </defs>
  <g class="cls-7">
    <text class="cls-4" transform="translate(149.44 203.08) scale(.86 1)"><tspan x="0" y="0">T</tspan></text>
    <text class="cls-2" transform="translate(241.43 203.08) scale(.86 1)"><tspan x="0" y="0">r</tspan></text>
    <text class="cls-2" transform="translate(305.94 203.08) scale(.86 1)"><tspan x="0" y="0">ee</tspan></text>
  </g>
  <g class="cls-7">
    <text class="cls-1" transform="translate(185.64 259.29) scale(.84 1)"><tspan x="0" y="0">P</tspan></text>
    <text class="cls-5" transform="translate(217.27 259.29) scale(.84 1)"><tspan x="0" y="0">ho</tspan></text>
    <text class="cls-5" transform="translate(283.55 259.29) scale(.84 1)"><tspan x="0" y="0">t</tspan></text>
    <text class="cls-5" transform="translate(303.06 259.29) scale(.84 1)"><tspan x="0" y="0">o</tspan></text>
    <text class="cls-5" transform="translate(336.02 259.29) scale(.84 1)"><tspan x="0" y="0">g</tspan></text>
    <text class="cls-5" transform="translate(369.21 259.29) scale(.84 1)"><tspan x="0" y="0">r</tspan></text>
    <text class="cls-5" transform="translate(388.54 259.29) scale(.84 1)"><tspan x="0" y="0">ap</tspan></text>
    <text class="cls-6" transform="translate(451.63 259.29) scale(.84 1)"><tspan x="0" y="0">h</tspan></text>
    <text class="cls-5" transform="translate(484.17 259.29) scale(.84 1)"><tspan x="0" y="0">y</tspan></text>
  </g>
  <polygon class="cls-3" points=".5 169.16 9.37 187.42 19.81 196.81 31.28 202.55 47.98 202.55 71.98 230.2 71.98 268.17 75.63 273.59 84.5 273.59 88.15 270.9 88.15 207.77 94.41 196.81 100.52 197.33 102.39 199.94 107.46 202.03 114.76 204.98 120.5 204.98 130.94 204.98 135.63 200.46 142.94 196.29 148.15 189.61 154.41 182.2 157.54 169.16 157.54 160.29 157.54 146.72 154.94 135.25 150.76 130.03 143.98 122.2 136.68 116.98 131.98 116.98 134.07 104.98 134.59 96.11 134.59 80.98 131.46 71.07 125.2 59.59 114.76 48.11 106.94 40.81 97.67 34.59 90.24 34.59 66.62 34.59 55.81 38.2 46.94 45.51 37.54 55.94 27.11 66.9 25.02 80.98 23.46 108.11 26.59 114.9 22.41 119.59 13.02 123.25 7.28 132.64 .5 147.25 .5 169.16"/>
  <polygon class="cls-8" points="73.54 178.03 73.54 117.51 76.15 110.72 80.78 110.72 84.5 112.81 84.5 178.03 79.02 158.72 73.54 178.03"/>
  <line class="cls-9" x1="23.98" y1="317.85" x2="24.5" y2="317.85"/>
  <polygon class="cls-8" points="55.28 199.42 73.54 221.85 73.54 184.81 55.28 199.42"/>
  <polygon class="cls-8" points="84.5 184.81 84.5 197.85 88.68 191.33 88.68 187.42 84.5 184.81"/>
  <polygon class="cls-8" points="126.76 150.54 94.41 187.42 94.41 191.33 100.52 191.33 131.46 154.09 131.46 150.54 126.76 150.54"/>
  <polygon class="cls-8" points="24.5 174.38 24.5 178.03 45.89 197.85 51.63 200.46 51.63 195.25 31.28 174.38 24.5 174.38"/>
</svg>